<svg width="34" height="35" viewBox="0 0 34 35" fill="none" xmlns="http://www.w3.org/2000/svg">
<path d="M17 0.443481C7.61175 0.443481 0 8.05523 0 17.4435C0 26.8317 7.61175 34.4435 17 34.4435C26.3882 34.4435 34 26.8317 34 17.4435C34 8.05523 26.3882 0.443481 17 0.443481ZM17 1.54848C25.7777 1.54848 32.8936 8.6644 32.8936 17.4435C32.8936 26.2211 25.7791 33.3371 17 33.3371C8.22092 33.3371 1.10642 26.2211 1.10642 17.4435C1.10642 8.66581 8.22233 1.54848 17 1.54848ZM16.0395 2.44098C15.572 2.46081 15.1045 2.50048 14.6342 2.55148L14.4826 6.72215C14.8162 6.6657 15.1516 6.62128 15.4884 6.58898L15.5876 3.77265L15.5692 3.57856L15.6301 3.76273L16.5707 5.87215H17.4293L18.3699 3.76415L18.4266 3.57856L18.4124 3.77265L18.5116 6.58898C18.8403 6.62015 19.1817 6.66548 19.5174 6.72215L19.363 2.55148C18.8959 2.49885 18.4272 2.46199 17.9577 2.44098L17.0326 4.74306L17 4.91306L16.9674 4.74306L16.0395 2.44098ZM25.5255 5.02498L23.3396 8.46465C23.6158 8.67715 23.9799 8.99023 24.2137 9.20415L26.2721 8.13598L26.4024 8.03823L26.3047 8.1714L25.2393 10.2298C25.4702 10.4777 25.8032 10.8786 25.9902 11.1223L29.4327 8.93498C29.2215 8.66187 29.0043 8.39358 28.781 8.13031L26.6007 9.56681L26.452 9.69715L26.5625 9.53423L27.5258 7.61323L26.8458 6.93323L24.9248 7.89656L24.7619 8.00706L24.8908 7.8569L26.333 5.67665C26.078 5.46131 25.8357 5.2644 25.5255 5.02498ZM7.79167 5.80556C7.28167 5.85798 6.88783 6.20648 5.81825 7.39931C5.44736 7.81964 5.08971 8.25146 4.74583 8.69415L7.684 11.4807C8.65725 10.4041 9.0525 10.0046 9.82033 9.19565C10.3629 8.6219 10.6703 7.96315 10.1263 7.3299C9.83167 6.98706 9.33583 6.91198 8.92217 7.08198L8.8825 7.09615L8.89667 7.05931C8.94776 6.87134 8.94235 6.67248 8.88113 6.48756C8.81991 6.30263 8.70558 6.13984 8.55242 6.01948C8.44595 5.93554 8.3239 5.87354 8.19332 5.83706C8.06274 5.80059 7.92622 5.78895 7.79167 5.80556ZM7.80017 6.67681C7.99283 6.6244 8.19258 6.76181 8.2365 6.96015C8.28183 7.15848 8.15717 7.34548 8.01833 7.50131C7.70667 7.85548 6.55775 9.05681 6.55775 9.05681L5.98825 8.51423C6.579 7.79173 7.208 7.1344 7.49275 6.87373C7.57818 6.78467 7.68355 6.71718 7.80017 6.67681ZM17 7.36106C14.5044 7.35996 12.0972 8.28482 10.2443 9.9566C8.39139 11.6284 7.22468 13.9282 6.97 16.4107V16.4136C6.80992 17.9886 7.02273 19.5792 7.59122 21.0568C8.15972 22.5344 9.06794 23.8574 10.2425 24.919C11.417 25.9805 12.8248 26.7508 14.3521 27.1675C15.8795 27.5842 17.4834 27.6356 19.0343 27.3176C21.3076 26.8503 23.3499 25.6126 24.816 23.8135C26.2821 22.0144 27.0822 19.7643 27.081 17.4435C27.0784 14.7708 26.0154 12.2083 24.1254 10.3185C22.2353 8.42878 19.6727 7.36615 17 7.3639V7.36106ZM9.15592 7.7039C9.2225 7.7039 9.29192 7.72231 9.35425 7.76481C9.47892 7.8484 9.53558 7.99148 9.50442 8.13315C9.46758 8.30173 9.32733 8.4604 9.214 8.58365L7.73358 10.1703L7.13858 9.60365C7.13858 9.60365 8.2535 8.42498 8.619 8.04673C8.7635 7.89656 8.857 7.8059 8.95617 7.75631C9.0176 7.72442 9.08675 7.70652 9.15592 7.7039ZM17 8.68565C18.1505 8.68434 19.2899 8.90998 20.353 9.34964C21.4162 9.7893 22.3821 10.4343 23.1956 11.2478C24.0091 12.0613 24.6542 13.0273 25.0938 14.0905C25.5335 15.1536 25.7591 16.293 25.7578 17.4435H17V26.2013C15.8495 26.2026 14.7101 25.977 13.647 25.5373C12.5838 25.0977 11.6179 24.4526 10.8044 23.6391C9.99087 22.8256 9.34582 21.8596 8.90616 20.7965C8.4665 19.7334 8.24086 18.5939 8.24217 17.4435H17V8.68565Z" fill="#979797"/>
</svg>
