<svg width="30" height="31" viewBox="0 0 30 31" fill="none" xmlns="http://www.w3.org/2000/svg">
<path d="M15.3184 15.5131L15.977 15.1094L24.3906 20.8672L15.3184 15.5131Z" fill="#979797"/>
<path d="M14.831 15.1972L14.2148 14.836L14.916 3.85156L14.831 15.1972Z" fill="#979797"/>
<path d="M14.086 15.1562L11.3027 17.4721L14.6384 15.4962L14.086 15.1562Z" fill="#979797"/>
<path d="M15 0.599609C6.71388 0.599609 0 7.31349 0 15.5996C0 23.8857 6.71388 30.5996 15 30.5996C23.2861 30.5996 30 23.8857 30 15.5996C30 7.31349 23.2861 0.599609 15 0.599609ZM15 29.771C11.5793 29.771 8.37111 28.6237 5.97026 26.5415C3.65439 24.5019 1.84844 21.2512 1.40227 17.8092C2.46459 24.3744 8.13739 29.3673 15 29.3673C22.6062 29.3673 28.7677 23.2058 28.7677 15.5996C28.7677 12.4339 27.5992 9.35315 25.7932 7.03729C27.5992 8.43955 29.1714 12.4126 29.1714 15.5996C29.1926 23.4396 22.8399 29.771 15 29.771ZM13.704 14.516L14.915 2.08686C14.9363 2.08686 14.9788 2.08686 15 2.08686H15.0212L15.1487 15.1747L17.2309 13.9211L15.1487 2.08686C22.5425 2.1506 28.5127 8.1846 28.5127 15.5784C28.5127 17.958 27.8966 20.1888 26.813 22.1435L17.4433 14.3036L16.551 14.8135L26.7493 22.271C26.728 22.3135 26.7068 22.356 26.6643 22.3985L15.1912 15.7908V18.1067L26.5793 22.5047C24.221 26.4353 19.9079 29.0699 15 29.0699C10.0921 29.0699 5.77904 26.4353 3.42068 22.526L14.8088 18.1067V15.7696L3.33569 22.356C3.31445 22.3135 3.2932 22.271 3.25071 22.2285L13.4065 14.7922L12.5142 14.2823L3.16572 22.0798C2.1034 20.1464 1.48725 17.9367 1.48725 15.5571C1.48725 8.20584 7.37252 2.23559 14.6813 2.06562L12.8541 14.0274L13.704 14.516ZM15 1.40697C7.1813 1.40697 0.828612 7.75967 0.828612 15.5784C0.828612 18.7653 1.97592 21.7611 3.73938 24.3744C4.33428 25.5005 4.97167 26.1803 5.84278 27.0939C2.46459 24.3956 0.276204 20.2313 0.276204 15.5784C0.276204 7.44097 6.86261 0.854567 15 0.854567C23.1374 0.854567 29.8513 7.73842 29.5963 15.5784C29.4051 7.92964 22.7125 1.40697 15 1.40697Z" fill="#979797"/>
</svg>
