<svg width="34" height="31" viewBox="0 0 34 31" fill="none" xmlns="http://www.w3.org/2000/svg">
<g opacity="0.5">
<path d="M32.8302 11.998C32.5161 11.9083 32.1662 11.866 31.4293 11.773C28.3792 11.6452 20.8414 11.3457 17.0002 11.3457C13.1592 11.3457 5.62122 11.645 2.57142 11.773C1.83413 11.866 1.48393 11.9083 1.16994 11.998C0.21097 12.229 0 12.5807 0 13.2825V18.0923C0 18.7941 0.73593 19.2671 1.24321 19.3625C1.75083 19.4586 2.07196 19.4969 2.60593 19.5489C5.33392 19.7215 11.6631 20.0815 17 20.0873C22.3372 20.082 28.6659 19.7218 31.3941 19.5489C31.9279 19.4969 32.2492 19.4584 32.757 19.3625C33.2641 19.267 34 18.7941 34 18.0923V13.2825C34 12.5807 33.7892 12.229 32.8302 11.998Z" fill="url(#paint0_linear_122_188)"/>
<path d="M4.76676 12.1864C6.26752 6.85187 11.1987 2.93778 17.0524 2.93778C22.8891 2.93778 27.8103 6.83034 29.3256 12.1435C29.3304 12.1622 29.3336 12.1719 29.3389 12.19C30.209 12.0901 30.9884 11.9359 31.5392 11.7856C31.5291 11.7514 31.5266 11.7444 31.518 11.7107C29.7957 5.38181 23.9718 0.724609 17.0524 0.724609C10.1095 0.724609 4.27036 5.41204 2.56934 11.7722C3.33451 11.9864 3.895 12.0762 4.76676 12.1864Z" fill="url(#paint1_radial_122_188)"/>
<path d="M29.2901 19.1797C29.2749 19.2271 29.2581 19.2793 29.2502 19.3053C27.6545 24.4906 22.7976 28.2622 17.0527 28.2622C11.2625 28.2622 6.37509 24.4325 4.81806 19.1847C3.8664 19.3568 3.54493 19.4224 2.60449 19.5502C4.34699 25.8482 10.1549 30.4753 17.0527 30.4753C23.9536 30.4753 29.7635 25.8433 31.5027 19.5401C30.6742 19.4355 30.1861 19.3565 29.2901 19.1797Z" fill="url(#paint2_radial_122_188)"/>
<path d="M5.076 12.172C5.43725 12.0195 5.78677 11.7763 6.33162 11.6198C7.95597 7.30757 12.1438 4.23681 17.0551 4.23681C21.9511 4.23681 26.1285 7.28864 27.763 11.58C27.7688 11.5946 27.7747 11.6123 27.7793 11.6233C28.0605 11.7228 28.889 12.0661 29.1466 12.1809C29.1832 12.1818 29.2612 12.1845 29.3418 12.1867C29.337 12.1713 29.3327 12.1558 29.3285 12.1402C27.8124 6.82884 22.8915 2.9375 17.0551 2.9375C11.203 2.9375 6.27178 6.84985 4.77051 12.1832C4.85721 12.1835 5.02228 12.1758 5.076 12.172Z" fill="url(#paint3_radial_122_188)"/>
<path d="M16.9624 3.29988C22.4386 3.29988 27.293 6.63641 29.1316 12.1361L29.1466 12.1828C29.1752 12.1828 29.2794 12.1866 29.3418 12.1887C29.3369 12.1687 29.3318 12.1572 29.3285 12.1422C27.8124 6.83079 22.8915 2.93945 17.055 2.93945C11.203 2.93945 6.27178 6.8518 4.77051 12.1852C4.88747 12.1833 4.94374 12.1833 5.07634 12.1737C6.72024 6.95256 11.5264 3.29988 16.9624 3.29988Z" fill="white"/>
<path d="M28.9808 19.1946C28.5874 19.4192 28.0977 19.6353 27.7061 19.7616C27.7008 19.7744 27.6786 19.8314 27.6738 19.8448C25.9803 24.0175 21.8635 26.963 17.0537 26.963C12.2138 26.963 8.0759 23.9817 6.40208 19.7677C5.95175 19.6399 5.27855 19.3262 5.02372 19.1953C4.92835 19.1906 4.87701 19.1878 4.81836 19.1847C6.37539 24.4318 11.2637 28.2622 17.0539 28.2622C22.818 28.2622 27.6874 24.4668 29.2673 19.2567C29.2707 19.2467 29.2882 19.1894 29.2919 19.1797C29.2007 19.1833 29.061 19.1946 28.9808 19.1946Z" fill="url(#paint4_radial_122_188)"/>
<path d="M32.5578 12.3452C31.7498 12.2448 31.199 12.2557 29.2312 12.1863C29.1417 12.183 29.0508 12.1802 28.9584 12.1769C25.3901 12.0519 20.03 11.8848 17 11.8848C13.9701 11.8848 8.61016 12.0519 5.04135 12.1769C4.94921 12.1802 4.8586 12.183 4.76935 12.1863C2.80109 12.2557 2.25046 12.2448 1.44245 12.3452C0.63461 12.4465 0 12.808 0 13.4228V17.8829C0 18.4981 0.76449 18.9961 1.44228 18.9961C1.44228 18.9961 10.0691 19.5403 17 19.5467C23.9311 19.5403 32.5578 18.9961 32.5578 18.9961C33.2355 18.9961 34 18.4981 34 17.8829V13.4228C34 12.808 33.3656 12.4465 32.5578 12.3452Z" fill="url(#paint5_radial_122_188)"/>
<path d="M28.9808 19.1934C27.2878 24.3251 22.5264 27.8999 17.1481 27.8999C11.715 27.8999 6.89419 24.6159 5.02317 19.1934C4.95449 19.1896 4.88649 19.1869 4.81934 19.1829C6.37603 24.4301 11.2653 28.2605 17.0556 28.2605C22.8478 28.2605 27.7375 24.4278 29.2929 19.1777C29.1905 19.1825 29.0867 19.1883 28.9808 19.1934Z" fill="white"/>
<path d="M28.9915 19.1934L28.9812 19.1938C28.5877 19.4183 28.0983 19.6344 27.7065 19.7607C27.7012 19.7736 27.679 19.8305 27.6744 19.8439C27.1385 21.1644 26.3599 22.362 25.3926 23.3825C26.9066 22.2515 28.1415 20.8225 28.9915 19.1934Z" fill="#8C8C8C"/>
<path d="M9.04092 23.714C7.90226 22.6058 6.99582 21.2643 6.40082 19.766C5.95049 19.6382 5.27746 19.3244 5.02246 19.1934C5.29495 19.7706 5.61623 20.3224 5.98262 20.8425C6.73215 21.84 7.64063 22.7289 8.67474 23.4813C8.7951 23.5619 8.91716 23.6394 9.04092 23.714Z" fill="#4D4D4D"/>
<path d="M4.81789 19.184L4.81398 19.1843C3.86538 19.3561 3.54357 19.422 2.60449 19.5491C2.68014 19.8236 2.76395 20.094 2.85524 20.3618L4.81789 19.184Z" fill="#252525"/>
<path d="M23.9086 14.3216C23.625 13.674 23.7257 13.7419 23.1084 13.7253C23.0583 13.7079 22.9245 13.7079 22.7412 13.7079C22.5583 13.7079 22.5247 13.7079 22.3743 13.7253C21.7909 13.7253 21.8909 13.6913 21.6909 14.1171C21.6909 14.1171 20.6895 16.4173 20.2564 17.3715L20.2397 17.4055C20.1564 17.5756 20.2065 17.5756 20.3397 17.5756H21.2404C21.3075 17.5756 21.3404 17.5423 21.3571 17.5075C21.3571 17.5075 21.4906 17.2178 21.6573 16.8091H23.8587C24.0256 17.2011 24.1422 17.4905 24.1422 17.5075C24.1588 17.5587 24.209 17.5756 24.2588 17.5756H25.1928C25.3263 17.5756 25.3598 17.5935 25.3097 17.4734C25.1427 17.0647 24.0587 14.6789 23.9086 14.3216ZM21.9905 15.9913C22.274 15.3098 22.5579 14.6453 22.5579 14.6281C22.5748 14.5939 22.6081 14.5769 22.6579 14.5769C22.6747 14.5596 22.7251 14.5596 22.7749 14.5596C22.8084 14.5596 22.858 14.5596 22.8749 14.5769C22.908 14.5769 22.942 14.5939 22.958 14.6452C23.0253 14.8322 23.2748 15.4119 23.5082 15.9913H21.9905ZM9.98305 13.6738C10.0664 13.6738 10.0832 13.7077 10.0832 13.7759V17.423C10.0832 17.5076 10.0664 17.5424 9.96657 17.5424H9.09923C8.99943 17.5424 8.98278 17.5251 8.98278 17.423V13.7759C8.98278 13.7077 8.99944 13.6738 9.06591 13.6738H9.98305ZM8.13193 13.7077C8.23172 13.7077 8.24889 13.7416 8.24889 13.8272V17.457C8.24889 17.5595 8.23172 17.5765 8.13193 17.5765H7.11448C6.51437 17.5765 6.46423 17.5765 6.26431 17.236C5.8473 16.5716 4.59626 14.6119 4.59626 14.6119V17.4573C4.59626 17.56 4.5796 17.5767 4.47981 17.5767H3.72909C3.62913 17.5767 3.6123 17.56 3.6123 17.4573V13.8272C3.6123 13.7419 3.62913 13.7077 3.72909 13.7077H4.59626C5.24668 13.7077 5.32998 13.6908 5.5639 14.0317C5.74716 14.3386 7.26476 16.7241 7.26476 16.7241V13.8272C7.26476 13.7419 7.28142 13.7077 7.38172 13.7077H8.13193ZM30.3958 13.7077C30.4964 13.7077 30.5128 13.7416 30.5128 13.8272V17.457C30.5128 17.5595 30.4961 17.5765 30.3958 17.5765H29.3794C28.7785 17.5765 28.7283 17.5765 28.5283 17.236C28.111 16.5711 26.8603 14.6115 26.8603 14.6115V17.4572C26.8603 17.5596 26.8436 17.5763 26.7433 17.5763H25.9933C25.8933 17.5763 25.8762 17.5596 25.8762 17.4572V13.8272C25.8762 13.7419 25.8936 13.7077 25.9933 13.7077H26.8603C27.5108 13.7077 27.5944 13.6908 27.8274 14.0317C28.0277 14.3386 29.5288 16.7241 29.5288 16.7241V13.8272C29.5288 13.7419 29.5457 13.7077 29.6458 13.7077H30.3958ZM13.8023 15.1908C14.4696 15.2587 14.9533 15.3779 15.0867 16.0256C15.0867 16.0764 15.1034 16.2469 15.1034 16.4345C15.1034 16.5541 15.1034 16.7069 15.07 16.8435C14.9535 17.4567 14.5028 17.5759 13.8028 17.5759H11.0005C10.9004 17.5759 10.8835 17.5593 10.8835 17.4567V16.8435C10.8835 16.741 10.9004 16.724 11.0005 16.724H13.8352C13.9522 16.724 13.9856 16.6901 14.0021 16.6044V16.451V16.3489C13.9852 16.2805 13.9687 16.1783 13.8188 16.1616C13.5017 16.1446 12.5681 16.0592 11.934 15.9913C11.1168 15.906 10.9169 15.5484 10.8834 15.2415C10.8667 15.1391 10.8667 15.0029 10.8667 14.8836C10.8667 14.7812 10.8667 14.628 10.8834 14.5085C11.0004 13.9629 11.4007 13.7077 12.1007 13.7077H14.819C14.9195 13.7077 14.953 13.725 14.953 13.81V14.4407C14.953 14.5254 14.9195 14.5597 14.819 14.5427H12.1509C12.0341 14.5427 11.9843 14.5938 11.9673 14.7129V14.8663C11.9673 14.9517 12.0174 15.0199 12.1341 15.0363C12.4517 15.0711 13.4352 15.1563 13.8023 15.1908ZM18.6216 15.1908C19.2894 15.2587 19.7727 15.3779 19.9063 16.0256C19.9063 16.0764 19.9229 16.2469 19.9229 16.4345C19.9229 16.5541 19.9229 16.7069 19.8897 16.8435C19.7732 17.4567 19.3231 17.5759 18.6223 17.5759H15.8202C15.72 17.5759 15.7032 17.5593 15.7032 17.4567V16.8435C15.7032 16.741 15.72 16.724 15.8202 16.724H18.6555C18.772 16.724 18.8049 16.6901 18.8221 16.6044V16.451V16.3489C18.8047 16.2805 18.7717 16.1783 18.6385 16.1616C18.3218 16.1446 17.3877 16.0592 16.7541 15.9913C15.9367 15.906 15.7536 15.5484 15.7032 15.2415C15.6865 15.1391 15.6865 15.0029 15.6865 14.8836C15.6865 14.7812 15.6865 14.628 15.7032 14.5085C15.8202 13.9629 16.2203 13.7077 16.9206 13.7077H19.6394C19.739 13.7077 19.7728 13.725 19.7728 13.81V14.4407C19.7728 14.5254 19.739 14.5597 19.6394 14.5427H16.9708C16.8541 14.5427 16.8043 14.5938 16.7873 14.7129V14.8663C16.7873 14.9517 16.8208 15.0199 16.9544 15.0363C17.2713 15.0711 18.2549 15.1563 18.6216 15.1908Z" fill="url(#paint6_radial_122_188)"/>
</g>
<defs>
<linearGradient id="paint0_linear_122_188" x1="17" y1="1.1645" x2="17" y2="25.3792" gradientUnits="userSpaceOnUse">
<stop offset="0.194" stop-color="white"/>
<stop offset="0.208" stop-color="#F8F8F8"/>
<stop offset="0.366" stop-color="#AEAEAE"/>
<stop offset="0.513" stop-color="#707070"/>
<stop offset="0.647" stop-color="#404040"/>
<stop offset="0.764" stop-color="#1D1D1D"/>
<stop offset="0.86" stop-color="#080808"/>
<stop offset="0.922"/>
</linearGradient>
<radialGradient id="paint1_radial_122_188" cx="0" cy="0" r="1" gradientUnits="userSpaceOnUse" gradientTransform="translate(7.45395 -5.25588) scale(23.7087 24.2254)">
<stop offset="0.202" stop-color="white"/>
<stop offset="0.382" stop-color="#FDFDFD"/>
<stop offset="0.487" stop-color="#F4F4F4"/>
<stop offset="0.573" stop-color="#E6E6E6"/>
<stop offset="0.648" stop-color="#D2D2D2"/>
<stop offset="0.689" stop-color="#C4C4C4"/>
<stop offset="1" stop-color="#333333"/>
</radialGradient>
<radialGradient id="paint2_radial_122_188" cx="0" cy="0" r="1" gradientUnits="userSpaceOnUse" gradientTransform="translate(64.8308 33.5487) scale(49.3765 50.4526)">
<stop offset="0.202" stop-color="white"/>
<stop offset="0.368" stop-color="#E4E4E4"/>
<stop offset="0.594" stop-color="#C4C4C4"/>
<stop offset="1" stop-color="#333333"/>
</radialGradient>
<radialGradient id="paint3_radial_122_188" cx="0" cy="0" r="1" gradientUnits="userSpaceOnUse" gradientTransform="translate(13.1515 22.4105) scale(15.1587 15.4891)">
<stop offset="0.202" stop-color="white"/>
<stop offset="0.368" stop-color="#E4E4E4"/>
<stop offset="0.594" stop-color="#C4C4C4"/>
<stop offset="1" stop-color="#333333"/>
</radialGradient>
<radialGradient id="paint4_radial_122_188" cx="0" cy="0" r="1" gradientUnits="userSpaceOnUse" gradientTransform="translate(25.3828 38.253) scale(28.7629 29.3898)">
<stop offset="0.202" stop-color="white"/>
<stop offset="0.368" stop-color="#E4E4E4"/>
<stop offset="0.594" stop-color="#C4C4C4"/>
<stop offset="1" stop-color="#333333"/>
</radialGradient>
<radialGradient id="paint5_radial_122_188" cx="0" cy="0" r="1" gradientUnits="userSpaceOnUse" gradientTransform="translate(16.7722 3.78907) scale(22.8568 23.3549)">
<stop offset="0.202" stop-color="white"/>
<stop offset="0.397" stop-color="#FDFDFD"/>
<stop offset="0.51" stop-color="#F4F4F4"/>
<stop offset="0.603" stop-color="#E6E6E6"/>
<stop offset="0.684" stop-color="#D2D2D2"/>
<stop offset="0.728" stop-color="#C4C4C4"/>
<stop offset="1" stop-color="#4D4D4D"/>
</radialGradient>
<radialGradient id="paint6_radial_122_188" cx="0" cy="0" r="1" gradientUnits="userSpaceOnUse" gradientTransform="translate(17.3019 6.1288) scale(15.3954 15.7309)">
<stop offset="0.111" stop-color="#4D4D4D"/>
<stop offset="0.248" stop-color="#494949"/>
<stop offset="0.355" stop-color="#404040"/>
<stop offset="0.451" stop-color="#2F2F2F"/>
<stop offset="0.541" stop-color="#181818"/>
<stop offset="0.611"/>
</radialGradient>
</defs>
</svg>
