<svg width="31" height="32" viewBox="0 0 31 32" fill="none" xmlns="http://www.w3.org/2000/svg">
<path d="M15.6395 7.3684L18.8076 3.45965C22.777 3.67795 26.4738 4.63253 29.8403 6.19164L29.6521 6.11284C28.5922 7.50532 27.1944 8.58649 25.5816 9.23881L25.5163 9.26206C25.3294 7.40327 24.0391 6.94988 19.943 6.94988L15.6408 31.4435L11.313 6.94471C7.24246 6.94471 5.95218 7.40198 5.76402 9.25947C4.08717 8.58907 2.69064 7.51307 1.64741 6.14772L1.63077 6.12576C4.80655 4.64287 8.5033 3.6857 12.3946 3.46869L12.4727 3.46482L15.6408 7.3684H15.6395ZM15.6395 2.33069C15.7765 2.3281 15.9378 2.3281 16.0991 2.3281C21.177 2.3281 26.004 3.41315 30.3638 5.36623L30.1398 5.2771C30.4432 4.76816 30.7325 4.17526 30.9718 3.55782L31 3.47644C26.4546 1.58665 21.1808 0.475774 15.6523 0.443481H15.6395C10.0995 0.474483 4.82447 1.58536 0 3.57978L0.279049 3.47773C0.565778 4.19464 0.853786 4.78883 1.17892 5.36106L1.13924 5.28614C5.284 3.41573 10.1213 2.32681 15.212 2.32681C15.363 2.32681 15.5128 2.3281 15.6626 2.32939H15.6395V2.33069Z" fill="#979797"/>
</svg>
