<svg width="778" height="778" viewBox="0 0 778 778" fill="none" xmlns="http://www.w3.org/2000/svg">
<path fill-rule="evenodd" clip-rule="evenodd" d="M388.851 0.890625C174.419 0.890625 0.592773 174.725 0.592773 389.149C0.592773 603.576 174.423 777.407 388.851 777.407C603.27 777.407 777.109 603.576 777.109 389.149C777.109 174.73 603.27 0.890625 388.851 0.890625ZM388.851 742.596C193.645 742.596 35.4037 584.355 35.4037 389.149C35.4037 193.951 193.645 35.7057 388.851 35.7057C584.049 35.7057 742.298 193.951 742.298 389.149C742.298 584.355 584.049 742.596 388.851 742.596Z" fill="#979797"/>
<path fill-rule="evenodd" clip-rule="evenodd" d="M311.467 125.081C336.606 117.742 362.663 114.029 388.851 114.053C415.684 114.053 441.625 117.896 466.147 125.06L388.851 296.396L311.467 125.081Z" fill="#979797"/>
<path fill-rule="evenodd" clip-rule="evenodd" d="M536.52 157.004C565.488 175.484 590.763 199.197 611.052 226.929L484.185 507.674L435.229 398.817H342.472L293.52 507.67L166.836 226.667C187.086 199.045 212.292 175.425 241.169 157.008L342.472 381.746H435.545L536.52 157.004ZM123.047 317.951C116.854 341.177 113.727 365.113 113.746 389.15C113.746 496.962 175.751 590.279 266.047 635.4L123.047 317.951Z" fill="#979797"/>
<path fill-rule="evenodd" clip-rule="evenodd" d="M312.746 653.592C337.49 660.69 363.108 664.279 388.851 664.255C415.224 664.255 440.725 660.54 464.864 653.621L388.851 484.804L312.746 653.592ZM511.642 635.4C601.942 590.279 663.947 496.961 663.947 389.15C663.947 364.745 660.768 341.082 654.812 318.553L511.642 635.4Z" fill="#979797"/>
</svg>
